Coordinates
version=1
nRows=54
nColumns=12
inDegrees=yes

Units are S.I. units (second, meters, Newtons, ...)
Angles are in degrees

endheader
time	SC_y	SC_z	SC_x	AC_y	AC_z	AC_x	GH_y	GH_z	GH_yy	EL_x	PS_y
       0.0               -12.6          21.18          39.97          30.15         -3.086          2.298          91.08          50.85          135.6          82.34          97.97
   0.03062               -12.6          21.18          39.97          30.16         -3.087          2.297          91.06          50.84          135.6          82.33          97.97
   0.06124               -12.6          21.18          39.97          30.16         -3.088          2.295          91.03          50.83          135.6          82.32          97.96
   0.09186               -12.6          21.18          39.96          30.17         -3.089          2.294          91.01          50.82          135.5          82.31          97.95
    0.1225              -12.61          21.18          39.96          30.17          -3.09          2.292          90.98          50.81          135.5           82.3          97.94
    0.1531              -12.61          21.18          39.95          30.18         -3.091           2.29          90.95           50.8          135.5          82.28          97.93
    0.1837              -12.61          21.19          39.95          30.18         -3.092          2.288          90.92          50.79          135.5          82.27          97.92
    0.2143              -12.62          21.19          39.95          30.19         -3.094          2.286          90.89          50.78          135.5          82.26          97.91
     0.245              -12.62          21.19          39.94          30.19         -3.095          2.284          90.85          50.77          135.4          82.24           97.9
    0.2756              -12.63          21.19          39.93           30.2         -3.096          2.282          90.81          50.75          135.4          82.23          97.89
    0.3062              -12.63          21.19          39.93           30.2         -3.098          2.279          90.77          50.74          135.4          82.21          97.87
    0.3368              -12.63          21.19          39.92          30.21           -3.1          2.276          90.72          50.72          135.4           82.2          97.86
    0.3674              -12.64          21.19          39.91          30.22         -3.101          2.273          90.68           50.7          135.3          82.18          97.84
    0.3981              -12.65           21.2          39.91          30.23         -3.103           2.27          90.62          50.68          135.3          82.16          97.83
    0.4287              -12.65           21.2           39.9          30.24         -3.105          2.267          90.57          50.66          135.2          82.13          97.81
    0.4593              -12.66           21.2          39.89          30.25         -3.107          2.263          90.51          50.64          135.2          82.11          97.79
    0.4899              -12.67           21.2          39.88          30.26          -3.11          2.259          90.44          50.62          135.2          82.08          97.77
    0.5205              -12.67           21.2          39.87          30.27         -3.113          2.254          90.37          50.59          135.1          82.05          97.74
    0.5512              -12.68          21.21          39.86          30.28         -3.115           2.25          90.29          50.56          135.1          82.02          97.72
    0.5818              -12.69          21.21          39.84           30.3         -3.119          2.244           90.2          50.53          135.0          81.99          97.69
    0.6124               -12.7          21.21          39.83          30.31         -3.122          2.238          90.11           50.5          134.9          81.95          97.66
     0.643              -12.71          21.22          39.81          30.33         -3.126          2.232           90.0          50.46          134.9          81.91          97.63
    0.6736              -12.72          21.22           39.8          30.35          -3.13          2.225          89.89          50.42          134.8          81.86          97.59
    0.7043              -12.74          21.22          39.78          30.37         -3.135          2.217          89.76          50.37          134.7          81.81          97.55
    0.7349              -12.75          21.23          39.76          30.39          -3.14          2.208          89.62          50.32          134.6          81.75           97.5
    0.7655              -12.77          21.23          39.73          30.41         -3.146          2.199          89.46          50.26          134.5          81.69          97.45
    0.7961              -12.79          21.24          39.71          30.44         -3.152          2.188          89.28          50.19          134.4          81.62          97.39
    0.8267              -12.81          21.25          39.68          30.48          -3.16          2.176          89.08          50.12          134.3          81.54          97.33
    0.8574              -12.84          21.26          39.64          30.51         -3.168          2.162          88.86          50.04          134.1          81.45          97.26
     0.888              -12.86          21.26           39.6          30.55         -3.177          2.146           88.6          49.95          133.9          81.35          97.17
    0.9186              -12.89          21.27          39.56           30.6         -3.188          2.128          88.31          49.84          133.7          81.23          97.08
    0.9492              -12.93          21.29          39.51          30.65         -3.201          2.108          87.98          49.72          133.5           81.1          96.97
    0.9799              -12.97           21.3          39.45          30.72         -3.215          2.084          87.59          49.58          133.3          80.95          96.85
      1.01              -13.02          21.31          39.39          30.79         -3.231          2.056          87.14          49.41          133.0          80.77           96.7
     1.041              -13.08          21.33          39.31          30.87         -3.251          2.024          86.61          49.22          132.6          80.56          96.53
     1.072              -13.14          21.35          39.22          30.97         -3.273          1.986          85.99          48.99          132.2          80.31          96.33
     1.102              -13.22          21.38          39.11          31.09         -3.301          1.941          85.25          48.72          131.7          80.02          96.09
     1.133              -13.32          21.41          38.97          31.23         -3.333          1.886          84.37           48.4          131.1          79.66          95.81
     1.164              -13.43          21.44          38.81           31.4         -3.372          1.821           83.3          48.01          130.4          79.24          95.46
     1.194              -13.57          21.49          38.62          31.61          -3.42          1.741           82.0          47.53          129.5          78.72          95.04
     1.225              -13.75          21.54          38.38          31.87          -3.48          1.642          80.38          46.94          128.4          78.07          94.52
     1.255              -13.97          21.61          38.08           32.2         -3.553          1.518          78.37          46.21          127.1          77.27          93.87
     1.286              -14.24           21.7           37.7           32.6         -3.646          1.363          75.84          45.28          125.4          76.26          93.06
     1.317              -14.58          21.81          37.22          33.12         -3.765          1.165          72.62          44.11          123.3          74.98          92.02
     1.347              -15.03          21.95          36.61          33.78         -3.916         0.9123           68.5           42.6          120.5          73.34          90.69
     1.378               -15.6          22.13          35.82          34.63         -4.111         0.5878          63.21          40.67          117.0          71.23          88.98
     1.409              -16.33          22.36          34.81          35.72         -4.359         0.1732          56.46           38.2          112.5          68.54          86.81
     1.439              -17.24          22.64          33.54          37.08         -4.671         -0.348          47.96           35.1          106.8          65.16          84.07
      1.47              -18.35           23.0           32.0          38.75         -5.051        -0.9832          37.61          31.32          99.86          61.04          80.73
       1.5              -19.65           23.4          30.21          40.67         -5.492         -1.719          25.61          26.94          91.85          56.26          76.86
     1.531              -21.05          23.84          28.27          42.76          -5.97         -2.517          12.62          22.19          83.16          51.08          72.67
     1.562              -22.44          24.29          26.33          44.85         -6.447         -3.314        -0.3678          17.44          74.48           45.9          68.48
     1.592              -23.74          24.69          24.54          46.78         -6.888          -4.05         -12.37          13.06          66.47          41.12          64.61
     1.623              -24.85          25.05           23.0          48.44         -7.268         -4.685         -22.72          9.281          59.55           37.0          61.27
